<svg width="89" height="89" viewBox="0 0 89 89" fill="none" xmlns="http://www.w3.org/2000/svg">
    <path fill-rule="evenodd" clip-rule="evenodd"
        d="M7.77744 44.9268L18.3919 55.5459C24.5143 48.163 33.7441 43.452 44.0434 43.4504C51.9927 43.4504 58.4752 36.9664 58.4752 29.014C58.4752 25.2587 57.03 21.8297 54.6676 19.2564L44.06 8.64421L7.77744 44.9268ZM44.0572 81.2128L54.6829 70.5871L69.7119 55.5551L80.3406 44.9264L69.7119 34.2976C63.5895 41.6805 54.3567 46.3916 44.0542 46.3916C36.1019 46.3931 29.6178 52.8787 29.6178 60.831C29.6178 64.5666 31.0494 67.9778 33.3914 70.5465L44.0572 81.2128ZM18.4038 70.5856H18.3981V60.7495L14.7378 57.0892L2.59154 44.9368L2.59619 44.9321L2.5858 44.9218L18.3966 29.1064V19.258H28.2435L44.0542 3.44258L44.0615 3.44993L59.865 19.258H69.7119V19.2684H69.7191V29.1152L85.5257 44.9202L85.5195 44.9264L85.5299 44.9368L73.3836 57.0877L69.7191 60.7552V70.6068H59.8722L56.2062 74.2743L44.0615 86.4252L31.9152 74.2743L28.2492 70.6068H18.4038V70.5856ZM29.3234 15.5993L44.0599 0.858154L58.798 15.5977H73.3836V30.1865L88.1217 44.9276L73.3836 59.6687V74.2589H58.798L44.0615 89L29.3234 74.2589H14.7378V59.6702L-0.000244141 44.9276L14.7378 30.1895V15.5993H29.3234Z"
        fill="white" />
</svg>
